<svg height="512" viewBox="0 0 60 56" width="512" xmlns="http://www.w3.org/2000/svg" xmlns:xlink="http://www.w3.org/1999/xlink"><linearGradient id="linearGradient-1" x1="10.357%" x2="74.305%" y1="-7.222%" y2="92.242%"><stop offset="0" stop-color="#d3dff2"/><stop offset=".1717" stop-color="#d3dff2"/><stop offset=".2" stop-color="#d3dff2"/><stop offset=".2002" stop-color="#dae2f2"/><stop offset=".2007" stop-color="#ebeaf2"/><stop offset=".2014" stop-color="#f6eff2"/><stop offset=".2023" stop-color="#fdf2f2"/><stop offset=".205" stop-color="#fff3f2"/><stop offset=".2522" stop-color="#fff3f2"/><stop offset=".26" stop-color="#fff3f2"/><stop offset=".26" stop-color="#d3dff2"/><stop offset=".3974" stop-color="#d3dff2"/><stop offset=".42" stop-color="#d3dff2"/><stop offset=".4202" stop-color="#dae2f2"/><stop offset=".4207" stop-color="#ebeaf2"/><stop offset=".4214" stop-color="#f6eff2"/><stop offset=".4223" stop-color="#fdf2f2"/><stop offset=".425" stop-color="#fff3f2"/><stop offset=".4894" stop-color="#fff3f2"/><stop offset=".5" stop-color="#fff3f2"/><stop offset=".5" stop-color="#f8f0f2"/><stop offset=".5001" stop-color="#e7e8f2"/><stop offset=".5003" stop-color="#dce3f2"/><stop offset=".5005" stop-color="#d5e0f2"/><stop offset=".501" stop-color="#d3dff2"/><stop offset=".7062" stop-color="#d3dff2"/><stop offset=".74" stop-color="#d3dff2"/><stop offset=".741" stop-color="#fff3f2"/><stop offset=".8346" stop-color="#fff3f2"/><stop offset=".85" stop-color="#fff3f2"/><stop offset=".851" stop-color="#d3dff2"/></linearGradient><g id="Page-1" fill="none" fill-rule="evenodd"><g id="026---Troubleshooting" fill-rule="nonzero"><g id="Icons_copy" transform="translate(1 1)"><path id="Rectangle-path" d="m17 30.36h10v10.35h-10z" fill="#7facfa"/><path id="Rectangle-path" d="m17 30.36h7v10.35h-7z" fill="#a4c2f7"/><path id="Rectangle-path" d="m44.334 34.123h4.657v7.943h-4.657z" fill="#7facfa" transform="matrix(-.858 .513 -.513 -.858 106.259 46.856)"/><path id="Shape" d="m44 4.03v2.45l-11.22 18.55-32.78000015 1.5.00000015-22.5c-.00029188-1.06095541.42104175-2.07854066 1.17125054-2.82874946.7502088-.75020879 1.76779405-1.17154242 2.82874946-1.17125054h36c.3205337-.00141664.6398866.03892268.95.12.5590019.12891805 1.081885.38181575 1.53.74.9624651.75731924 1.5230218 1.91531133 1.52 3.14z" fill="#cad9fc"/><path id="Shape" d="m41 4.03v2.45l-11.22 18.55-29.78000015 1.36.00000015-22.36c-.00029188-1.06095541.42104175-2.07854066 1.17125054-2.82874946.7502088-.75020879 1.76779405-1.17154242 2.82874946-1.17125054h33c.3205337-.00141664.6398866.03892268.95.12.5590019.12891805 1.081885.38181575 1.53.74.9624651.75731924 1.5230218 1.91531133 1.52 3.14z" fill="url(#linearGradient-1)"/><path id="Shape" d="m32.78 25.03-4.84 8h-23.94c-1.06095541.0002919-2.07854066-.4210417-2.82874946-1.1712505-.75020879-.7502088-1.17154242-1.7677941-1.17125054-2.8287495l-.00000015-4z" fill="#e8edfc"/><path id="Shape" d="m47.47 34.9-1.75 1.04-2.25 1.35c-.7348933.4394522-1.6867457.2026063-2.13-.53l-.39-.66-.96-1.63-.06-.09 6.63-4.02.01.02 1.43 2.4c.4383002.7318911.2011548 1.6804726-.53 2.12z" fill="#cad9fc"/><path id="Shape" d="m45.72 35.94-2.25 1.35c-.7348933.4394522-1.6867457.2026063-2.13-.53l-.39-.66-.96-1.63 4.34-2.63.02.03 1.43 2.39c.3124786.5229792.2889905 1.1806447-.06 1.68z" fill="#e8edfc"/><path id="Shape" d="m50.58 23.28c-1.8637616 7.4294872-8.874582 12.3838003-16.5 11.66-.789865-.0616405-1.5728389-.1921362-2.34-.39-7.3196927-1.8377929-12.2565458-8.6743521-11.6988634-16.2005977.5576825-7.5262457 6.4482427-13.56051134 13.9588634-14.2994023 1.7824888-.18255344 3.5831897-.05054717 5.32.39 2.0007819.50286129 3.8809193 1.40043141 5.53 2.64.903121.68373719 1.731095 1.4614294 2.47 2.32 3.2790282 3.8213041 4.4949946 8.9984859 3.26 13.88z" fill="#e8edfc"/><path id="Shape" d="m47.58 23.28c-1.5934238 6.3430841-6.9925837 11.0063585-13.5 11.66-.789865-.0616405-1.5728389-.1921362-2.34-.39-7.3196927-1.8377929-12.2565458-8.6743521-11.6988634-16.2005977.5576825-7.5262457 6.4482427-13.56051134 13.9588634-14.2994023.7826683.06656618 1.5585855.19700054 2.32.39 2.0007819.50286129 3.8809193 1.40043141 5.53 2.64.903121.68373719 1.731095 1.4614294 2.47 2.32 3.2790282 3.8213041 4.4949946 8.9984859 3.26 13.88z" fill="#fff"/><path id="Shape" d="m56.76 47.43-2.74 2.94-3.92 1.04-.07-.12-4.48-7.49c-.5642408-.9474398-.2556666-2.1727924.69-2.74l2.38-1.42.85-.51c.4543124-.2740056.9992312-.3552521 1.5137145-.2256924s.9559312.4591978 1.2262855.9156924z" fill="#cad9fc"/><path id="Shape" d="m54 48.02-2.74 2.94-1.23.33-4.48-7.49c-.5642408-.9474398-.2556666-2.1727924.69-2.74l2.38-1.42c.345562.1706324.6339661.438188.83.77z" fill="#e8edfc"/><path id="Shape" d="m57.04 51.79-1.38.82v.01l-1.85 1.1c-.948001.5603815-2.1704703.2525334-2.74-.69l-.83-1.39-.14-.23 6.66-3.98.97 1.61c.5589599.9513722.2518893 2.1752045-.69 2.75z" fill="#cad9fc"/><g fill="#e8edfc"><path id="Shape" d="m55.66 52.61v.01l-1.85 1.1c-.948001.5603815-2.1704703.2525334-2.74-.69l-.83-1.39 4.42-2.64.97 1.61c.359044.6155535.3704201 1.3739545.03 2z"/><path id="Shape" d="m15 38.0342h14c1.6568542 0 3 1.3431458 3 3 0 .5522847-.4477153 1-1 1h-18c-.5522847 0-1-.4477153-1-1 0-1.6568542 1.3431458-3 3-3z"/><path id="Shape" d="m40 26.569v2.93c0 .2954171-.2394829.5349-.5349.5349h-7.93c-.2953781.0001105-.5349344-.2392219-.5351-.5346v-2.93c0-.1418551.0563586-.2778987.1566746-.3781961.1003161-.1002973.2363703-.1566304.3782254-.1566039h1.4651v-6h-.4651c-.1419163 0-.2780157-.0563965-.3783375-.1567746-.1003219-.1003781-.1566421-.2365091-.1565625-.3784254v-2.93c0-.1418551.0563586-.2778987.1566746-.3781961.1003161-.1002973.2363703-.1566304.3782254-.1566039h4.93c.1418378-.0000796.2778979.0561889.3782486.1564271s.1567719.2362351.1568514.3780729v9.4652h1.4651c.1418551-.0000265.2779093.0563066.3782254.1566039.100316.1002974.1566746.236341.1566746.3781961z"/><circle id="Oval" cx="35.5" cy="10.534" r="2.5"/></g><path id="Shape" d="m13 42.0341h3c-.5522847 0-1-.4477153-1-1 0-1.6568542 1.3431458-3 3-3h2v-5.0041h-3v5.0041h-2c-1.6568542 0-3 1.3431458-3 3 0 .5522847.4477153 1 1 1z" fill="#fff"/><path id="Shape" d="m3 29.03v-25c-.00029188-1.06095541.42104175-2.07854066 1.17125054-2.82874946.7502088-.75020879 1.76779405-1.17154242 2.82874946-1.17125069l-3 .00000015c-1.06095541-.00029188-2.07854066.42104175-2.82874946 1.17125054-.75020879.7502088-1.17154242 1.76779405-1.17125054 2.82874946v25c-.00029188 1.0609554.42104175 2.0785407 1.17125054 2.8287495.7502088.7502088 1.76779405 1.1715424 2.82874946 1.1712505l3 .0000002c-1.06095541.0002917-2.07854066-.4210419-2.82874946-1.1712507-.75020879-.7502088-1.17154242-1.7677941-1.17125054-2.8287495z" fill="#fff"/></g><g id="Layer_2"><g fill="#428dff"><path id="Shape" d="m36.5557 37.0229c-1.3705589-.0005126-2.7357802-.1707412-4.0645-.5068-8.8486557-2.2286302-14.2154468-11.2083225-11.9873-20.0571 2.104459-8.32777792 10.2405618-13.65264214 18.714526-12.24816254 8.4739643 1.40447961 14.45712 9.06947774 13.7623536 17.63089884-.6947664 8.5614212-7.835537 15.1614018-16.4250796 15.1811637zm-.0284-31.0529c-6.6522245.00876738-12.4511301 4.5285614-14.0839 10.9773-1.5104045 6.0100964.9613548 12.3162423 6.1534708 15.6992163 5.1921159 3.382974 11.9593191 3.0965646 16.8470234-.7130191 4.8877042-3.8095837 6.8177869-10.3020294 4.804961-16.1630116-2.0128259-5.86098221-7.5245742-9.79769414-13.7215552-9.8004856z"/><path id="Shape" d="m51.1016 53.4116c-.4499427.0003237-.8446961-.2998911-.964574-.7335705s.064643-.8940176.450874-1.1248295l6.6621-3.9819c.3070052-.1905102.6929022-.2005964 1.0094402-.0263838.3165379.1742126.5144834.5056275.5177913.8669243s-.1885364.6962804-.5018315.8762595l-6.6621 3.9819c-.1544926.0929096-.3314222.1418704-.5117.1416z"/><path id="Shape" d="m53.7871 56.001c-.2486284-.0003105-.4962677-.0313116-.7373-.0923-.7725392-.1923201-1.4360772-.6856168-1.8428-1.37l-5.5127-9.2246c-.8499154-1.4222195-.3859973-3.2641474 1.0362-4.1141l3.2285-1.93c1.422629-.8465348 3.2619447-.3835094 4.1142 1.0357l5.5127 9.2246c.8472273 1.4223867.3843709 3.2620965-1.0351 4.1142l-3.23 1.9292c-.4630195.278892-.993175.4265972-1.5337.4273zm-2.291-15.1553c-.1802436-.0000183-.3571071.0489242-.5117.1416l-3.2285 1.93c-.2279011.1356454-.3923865.3564805-.45709.6136809-.0647036.2572004-.0242956.5295802.11229.7569191l5.5127 9.2251c.2831726.4733473.8961449.6280222 1.37.3457l.001-.0005 3.23-1.9292c.4729668-.2845354.6270359-.8978169.3447-1.3721l-5.5131-9.2239c-.1810372-.3025028-.507763-.4875702-.8603-.4873z"/><path id="Shape" d="m46.8594 43.2881c-.3522045.0003982-.6786488-.1845135-.8594-.4868l-2.3887-3.9971c-.1360964-.227715-.1761328-.5001764-.1112975-.7574169.0648353-.2572406.2292284-.4781773.4569975-.6141831l3.9971-2.3891c.4739632-.2831582 1.0877234-.1286326 1.3711.3452l2.39 3.997c.1360964.227715.1761328.5001764.1112975.7574169-.0648353.2572406-.2292284.4781773-.4569975.6141831l-3.998 2.3892c-.1546089.0929799-.3316865.1419433-.5121.1416zm-1.0186-4.6519 1.3633 2.28 2.2813-1.3628-1.3643-2.28z"/><path id="Shape" d="m43.6807 39.5088c-.8989693.0028624-1.7331904-.4672914-2.1963-1.2378l-1.419-2.3843c-.1824734-.3073735-.187104-.6887466-.0121475-1.00046.1749565-.3117133.5029201-.5064101.86035-.51075.3574299-.0043398.6900241.1823365.8724975.48971l1.4151 2.3794c.075793.1267882.199145.2179983.3425771.2533116.1434322.0353133.2950302.0117965.4210229-.0653116l3.9913-2.3911c.2597301-.1552882.3445059-.4916609.1894-.7515l-1.43-2.3935c-.2842989-.4731712-.1380531-1.0868169.3291-1.3809.2216228-.1403273.4901391-.1862555.7458027-.1275654s.4772652.2171298.6154973.4400654l1.4561 2.4361c.720109 1.2075564.3269483 2.7701343-.8789 3.4931l-3.9971 2.395c-.3953135.2336055-.8461222.3567291-1.3053.3565z"/><path id="Shape" d="m40.4648 32.0342h-7.93c-.8471965-.0009918-1.533753-.6875036-1.5348-1.5347v-2.9307c.0011025-.8473133.6878863-1.5338287 1.5352-1.5346h.4648v-4.0962c-.600357-.2241999-.9987902-.797147-1-1.438v-2.9312c.0011025-.8473133.6878863-1.5338287 1.5352-1.5346h4.93c.8471575.0009917 1.5336979.6874427 1.5348 1.5346v8.4654h.4648c.8473137.0007713 1.5340975.6872867 1.5352 1.5346v2.9307c-.0010474.8473524-.6878473 1.5339286-1.5352 1.5347zm-7.4648-2h7v-2h-1c-.5522847 0-1-.4477153-1-1v-9h-4v2c.5522847 0 1 .4477153 1 1v6c0 .5522847-.4477153 1-1 1h-1z"/><path id="Shape" d="m36.5 15.0342c-1.4156179 0-2.6918449-.8527476-3.2335784-2.160608s-.2422883-2.8132727.7587047-3.81426573c1.000993-1.00099299 2.5064053-1.30043813 3.8142657-.75870463s2.160608 1.81796046 2.160608 3.23357836c-.0023143 1.9320372-1.5679628 3.4976857-3.5 3.5zm0-5c-.8284271 0-1.5.6715729-1.5 1.5s.6715729 1.5 1.5 1.5 1.5-.6715729 1.5-1.5c-.0008819-.8280616-.6719384-1.4991181-1.5-1.5z"/><path id="Shape" d="m22.03 27.0342h-21.03c-.55228475 0-1-.4477153-1-1s.44771525-1 1-1h21.03c.5522847 0 1 .4477153 1 1s-.4477153 1-1 1z"/><path id="Shape" d="m28 40.0342h-10c-.5522847 0-1-.4477153-1-1v-5c0-.5522847.4477153-1 1-1h10c.5522847 0 1 .4477153 1 1v5c0 .5522847-.4477153 1-1 1zm-9-2h8v-3h-8z"/><path id="Shape" d="m32 44.0342h-18c-1.1040441-.0012675-1.9987325-.8959559-2-2 .0023149-2.2081794 1.7918206-3.9976851 4-4h14c2.2081794.0023149 3.9976851 1.7918206 4 4-.0012675 1.1040441-.8959559 1.9987325-2 2zm-16-4c-1.1040441.0012675-1.9987325.8959559-2 2h18c-.0012675-1.1040441-.8959559-1.9987325-2-2z"/></g><path id="Shape" d="m2 5.034v13 8h-2v-8-13z" fill="#fff"/><path id="Shape" d="m1 10.0341c.55162365-.0015928.99840721-.44837635 1-1v-4h-2v4c.00159279.55162365.44837635.9984072 1 1z" fill="#428dff"/><path id="Shape" d="m0 26.0341h2v-9c0-.5522847-.44771525-1-1-1s-1 .4477153-1 1z" fill="#428dff"/><path id="Shape" d="m2 13.0341c-.00393929-.2647148-.10748543-.5182244-.29-.71l-.15-.12c-.05575896-.0378229-.11628628-.0680866-.18-.09-.05668642-.0287244-.11736182-.0487809-.18-.0595-.06612245-.0112947-.13295032-.0179775-.2-.02-.26476698.0036835-.51836621.1072663-.71.29-.37745227.398085-.37745227 1.021915 0 1.42.09563893.090356.20764221.1616308.33.21.12022231.051241.24932274.07842.38.08.26470083-.0040079.51818632-.1075442.71-.29.1825468-.1919562.28608783-.4456317.29-.7105z" fill="#428dff"/><path id="Shape" d="m28.94 35.0342h-23.94c-2.76007596-.0032511-4.99674886-2.239924-5-5v-4c0-.5522847.44771525-1 1-1s1 .4477153 1 1v4c.00181871 1.6561003 1.34389967 2.9981813 3 3h23.94c.5522847 0 1 .4477153 1 1s-.4477153 1-1 1z" fill="#428dff"/><path id="Shape" d="m45 8.4844c-.5522847 0-1-.44771525-1-1v-2.45c-.0018187-1.65610033-1.3438997-2.99818129-3-3h-36c-1.65610033.00181871-2.99818129 1.34389967-3 3 0 .55228475-.44771525 1-1 1s-1-.44771525-1-1c.00325114-2.76007596 2.23992404-4.99674886 5-5h36c2.760076.00325114 4.9967489 2.23992404 5 5v2.45c0 .55228475-.4477153 1-1 1z" fill="#428dff"/></g></g></g></svg>