<svg height="512" viewBox="0 0 60 60" width="512" xmlns="http://www.w3.org/2000/svg"><g id="038---Happy-Customer" fill="none"><g id="Layer_4" transform="translate(1 1)"><path id="Shape" d="m46 46h-1c1.6568542.0000001 2.9999999 1.3431458 2.9999999 3s-1.3431457 2.9999999-2.9999999 3h-1c1.6568542 0 3 1.3431458 3 3s-1.3431458 3-3 3h-11c-5.6 0-8.26-1.47-9.35-2.35-.5465154-.4304491-1.2243947-.6599395-1.92-.65h-6.73v-16h5.22c1.1319841-.0008472 2.2108251-.480332 2.97-1.32l4.4-4.89c2.1136624-2.3503151 5.3106412-3.4109061 8.41-2.79v4h8.83c1.6154481-.0345822 2.9884525 1.173314 3.16 2.78.0611263.8312934-.2263603 1.6505429-.7935419 2.2613539-.5671817.6108111-1.3629205.958112-2.1964581.9586461h.83c1.6154481-.0345822 2.9884525 1.173314 3.16 2.78.0611263.8312934-.2263603 1.6505429-.7935419 2.2613539-.5671817.6108111-1.3629205.958112-2.1964581.9586461z" fill="#e8edfc"/><path id="Shape" d="m33 30v4h3v-4c-1.0772524-.2123986-2.1844432-.2242637-3.266-.035.089.015.178.017.266.035z" fill="#cad9fc"/><path id="Shape" d="m48.12 45.12c.6198937-.6141775.9380958-1.4700316.87-2.34-.1715475-1.606686-1.5445519-2.8145822-3.16-2.78h-.83c.8335376-.0005341 1.6292764-.347835 2.1964581-.9586461.5671816-.610811.8546682-1.4300605.7935419-2.2613539-.1715475-1.606686-1.5445519-2.8145822-3.16-2.78h-3c1.6154481-.0345822 2.9884525 1.173314 3.16 2.78.0611263.8312934-.2263603 1.6505429-.7935419 2.2613539-.5671817.6108111-1.3629205.958112-2.1964581.9586461h.83c1.6154481-.0345822 2.9884525 1.173314 3.16 2.78.0611263.8312934-.2263603 1.6505429-.7935419 2.2613539-.5671817.6108111-1.3629205.958112-2.1964581.9586461h-1c1.6568542 0 3 1.3431458 3 3s-1.3431458 3-3 3h-1c1.6568542 0 3 1.3431458 3 3s-1.3431458 3-3 3h3c1.6568542 0 3-1.3431458 3-3s-1.3431458-3-3-3h1c1.6568542 0 3-1.3431458 3-3s-1.3431458-3-3-3h1c.7955351.0000702 1.5583676-.3165773 2.12-.88z" fill="#cad9fc"/><path id="Rectangle-path" d="m36 26h6v8h-6z" fill="#a4c2f7"/><path id="Rectangle-path" d="m39 26h3v8h-3z" fill="#7facfa"/><rect id="Rectangle-path" fill="#a4c2f7" height="21" rx="2" width="15" y="36"/><path id="Shape" d="m58 4v18c0 2.209139-1.790861 4-4 4h-12v-.35c6.4193101-1.5204606 10.6820861-7.6079185 9.9157404-14.1601743-.7663458-6.55225585-6.3188215-11.49173101-12.9157404-11.48982625l15 .00000055c2.209139 0 4 1.790861 4 4z" fill="#a4c2f7"/><path id="Shape" d="m54 0h-3c2.209139 0 4 1.790861 4 4v18c0 2.209139-1.790861 4-4 4h3c2.209139 0 4-1.790861 4-4v-18c0-2.209139-1.790861-4-4-4z" fill="#7facfa"/><path id="Shape" d="m36 25.65v.35h-12c-2.209139 0-4-1.790861-4-4v-18c0-2.209139 1.790861-4 4-4l15-.00000055c-6.5969189-.00190476-12.1493946 4.9375704-12.9157404 11.48982625-.7663457 6.5522558 3.4964303 12.6397137 9.9157404 14.1601743z" fill="#a4c2f7"/><g fill="#e8edfc"><path id="Shape" d="m52 13c0 7.1797017-5.8202983 13-13 13s-13-5.8202983-13-13c0-7.17970175 5.8202983-13 13-13 3.4478144 0 6.7544152 1.36963892 9.1923882 3.80761184 2.4379729 2.43797292 3.8076118 5.74457379 3.8076118 9.19238816z"/><path id="Shape" d="m39 26h-3v-.35c.9828451.2337358 1.9897449.3512074 3 .35z"/><path id="Shape" d="m42 25.65v.35h-3c1.0102551.0012074 2.0171549-.1162642 3-.35z"/><circle id="Oval" cx="35" cy="9" r="2"/><circle id="Oval" cx="43" cy="9" r="2"/><path id="Shape" d="m44.7 15c.0818694-.0000769.1602138.0333084.2168639.0924132.05665.0591049.0866838.1387942.0831361.2205868-.1649621 3.1934124-2.8023297 5.6980581-6 5.6980581s-5.8350379-2.5046457-6-5.6980581c-.0035477-.0817926.0264861-.1614819.0831361-.2205868.0566501-.0591048.1349945-.0924901.2168639-.0924132z"/></g></g><g id="Layer_3" fill="#fff" transform="translate(1 1)"><path id="Shape" d="m1 57h3c-.55228475 0-1-.4477153-1-1v-19c0-.5522847.44771525-1 1-1h-3c-.55228475 0-1 .4477153-1 1v19c0 .5522847.44771525 1 1 1z"/><path id="Shape" d="m25 0h-3c-1.1045695 0-2 .8954305-2 2v22c0 1.1045695.8954305 2 2 2h3c-1.1045695 0-2-.8954305-2-2v-22c0-1.1045695.8954305-2 2-2z"/></g><path id="Rectangle-path" d="m0 39h2v8h-2z" fill="#fff"/><g fill="#428dff"><circle id="Oval" cx="1" cy="43" r="1"/><path id="Shape" d="m36 13c1.6568542 0 3-1.3431458 3-3 0-1.65685425-1.3431458-3-3-3s-3 1.34314575-3 3c0 1.6568542 1.3431458 3 3 3zm0-4c.5522847 0 1 .44771525 1 1 0 .5522847-.4477153 1-1 1s-1-.4477153-1-1c0-.55228475.4477153-1 1-1z"/><path id="Shape" d="m44 7c-1.6568542 0-3 1.34314575-3 3 0 1.6568542 1.3431458 3 3 3s3-1.3431458 3-3c0-1.65685425-1.3431458-3-3-3zm0 4c-.5522847 0-1-.4477153-1-1 0-.55228475.4477153-1 1-1s1 .44771525 1 1c0 .5522847-.4477153 1-1 1z"/><path id="Shape" d="m45.7 15h-11.394c-.356932-.000651-.6985535.1449252-.9453077.4028268-.2467543.2579016-.3771036.6056181-.3606923.9621732.1786659 3.7359981 3.2597322 6.6732404 7 6.6732404s6.8213341-2.9372423 7-6.6732404c.0178175-.3558992-.1112395-.7035099-.3569946-.9615527-.2457551-.2580429-.5866608-.403893-.9430054-.4034473zm-2.154 4.535c-1.3042042 1.3020315-3.2175517 1.7836713-4.9827697 1.2542939-1.7652179-.5293775-3.0977612-1.9844389-3.4702303-3.7892939h9.814c-.1961019.9609575-.6712553 1.8427392-1.366 2.535z"/><path id="Shape" d="m55 0h-30c-2.7600532.00330612-4.9966939 2.23994685-5 5v18c.0033061 2.7600532 2.2399468 4.9966939 5 5h11v1.861c-3.0747247-.2303164-6.0834434.9725068-8.152 3.259l-4.4 4.887c-.5687407.6318739-1.3788644.9927769-2.229.993h-4.219c0-1.6568542-1.3431458-3-3-3h-11c-2.97 0-3.919 4-2 4 .55228475 0 1-.4477153 1-1s.44771525-1 1-1h11c.5522847 0 1 .4477153 1 1v17c0 .5522847-.4477153 1-1 1h-11c-.55228475 0-1-.4477153-1-1v-9c0-.5522847-.44771525-1-1-1s-1 .4477153-1 1v9c0 1.6568542 1.34314575 3 3 3h11c1.2667854-.0052514 2.3937454-.8056491 2.816-2h5.914c.4662491-.008896.9216101.1413625 1.291.426 1.189.961 4.069 2.574 9.979 2.574h11c1.5544606-.0005691 2.9678202-.901662 3.6243104-2.3106932.6564902-1.4090311.4372079-3.070798-.5623104-4.2613068 1.0024668-.6033679 1.6904958-1.6154053 1.8828491-2.7695251.1923533-1.1541199-.1302566-2.3345971-.8828491-3.2304749 1.2058883-.7162662 1.9426499-2.0172354 1.9366885-3.4197932-.0059613-1.4025578-.7537552-2.6972172-1.9656885-3.4032068 1.0215113-1.2123328 1.234016-2.912239.5423833-4.3387313-.6916326-1.4264923-2.1578909-2.3124529-3.7423833-2.2612687h-1.833v-6.005h11c2.7600532-.0033061 4.9966939-2.2399468 5-5v-18c-.0033061-2.76005315-2.2399468-4.99669388-5-5zm-15 26c-6.627417 0-12-5.372583-12-12s5.372583-12 12-12 12 5.372583 12 12c-.0071648 6.624447-5.375553 11.9928352-12 12zm-18-3v-18c0-1.65685425 1.3431458-3 3-3h7.826c-4.229637 2.51835028-6.8211308 7.07740744-6.8211308 12 0 4.9225926 2.5914938 9.4816497 6.8211308 12h-7.826c-1.6568542 0-3-1.3431458-3-3zm26 14.852c.0412277.5555747-.151141 1.1031682-.5307749 1.5108949-.3796338.4077268-.9121249.6386327-1.4692251.6371051h-2c-.5522847 0-1 .4477153-1 1s.4477153 1 1 1h2.831c1.0906062-.0292567 2.0269991.7702821 2.169 1.852.0412277.5555747-.151141 1.1031682-.5307749 1.5108949-.3796338.4077268-.9121249.6386327-1.4692251.6371051h-3c-.5522847 0-1 .4477153-1 1s.4477153 1 1 1h2c1.1045695 0 2 .8954305 2 2s-.8954305 2-2 2h-3c-.5522847 0-1 .4477153-1 1s.4477153 1 1 1h2c1.1045695 0 2 .8954305 2 2s-.8954305 2-2 2h-11c-5.3 0-7.738-1.334-8.723-2.13-.7251895-.5715197-1.6237106-.878435-2.547-.87h-5.73v-14h4.219c1.4170535-.0009705 2.7673356-.6023475 3.716-1.655l4.4-4.887c1.6870002-1.8693778 4.1580248-2.8318354 6.665-2.596v2.138h-2c-.5522847 0-1 .4477153-1 1s.4477153 1 1 1h11.831c1.0906062-.0292567 2.0269991.7702821 2.169 1.852zm-6-3.852h-4v-6h4zm16-11c0 1.6568542-1.3431458 3-3 3h-7.826c4.229637-2.5183503 6.8211308-7.0774074 6.8211308-12 0-4.92259256-2.5914938-9.48164972-6.8211308-12h7.826c1.6568542 0 3 1.34314575 3 3z"/></g></g></svg>