<svg height="512" viewBox="0 0 60 60" width="512" xmlns="http://www.w3.org/2000/svg"><g id="011---Question-Answer-Question" fill="none"><g id="Layer_4" transform="translate(1 1)"><path id="Shape" d="m55.0000176 38-.0000176 5.48c.0016391.1995199-.1114621.3822448-.2907699.4697641s-.3929427.0642727-.5492301-.0597641l-7.69-5.89z" fill="#7facfa"/><path id="Shape" d="m58 16.07v19.86c-.002201 1.1423165-.9276835 2.067799-2.07 2.07h-23.93v-4.93c-.002201-1.1423165-.9276835-2.067799-2.07-2.07h-3.93v-14.93c.002201-1.1423165.9276835-2.067799 2.07-2.07h27.86c1.1423165.002201 2.067799.9276835 2.07 2.07z" fill="#a4c2f7"/><path id="Shape" d="m55.93 14h-3c1.1423165.002201 2.067799.9276835 2.07 2.07v19.86c-.002201 1.1423165-.9276835 2.067799-2.07 2.07h3c1.1423165-.002201 2.067799-.9276835 2.07-2.07v-19.86c-.002201-1.1423165-.9276835-2.067799-2.07-2.07z" fill="#7facfa"/><path id="Shape" d="m32 2.07v11.93h-3.93c-1.1423165.002201-2.067799.9276835-2.07 2.07v4.93h-23.93c-1.1423165-.002201-2.067799-.9276835-2.07-2.07v-16.86c.002201-1.1423165.9276835-2.067799 2.07-2.07h27.86c1.1423165.002201 2.067799.9276835 2.07 2.07z" fill="#e8edfc"/><g fill="#cad9fc"><path id="Shape" d="m29.93 0h-3c1.1423165.002201 2.067799.9276835 2.07 2.07v11.93h3v-11.93c-.002201-1.1423165-.9276835-2.067799-2.07-2.07z"/><path id="Shape" d="m11.53 21-7.69 5.89c-.15628742.1240368-.36992234.1472834-.5492301.0597641s-.29240899-.2702442-.2907699-.4697641l-.00001758-5.48z"/><path id="Shape" d="m11.53 52-7.69 5.89c-.15628742.1240368-.36992234.1472834-.5492301.0597641s-.29240899-.2702442-.2907699-.4697641l-.00001758-5.48z"/></g><rect id="Rectangle-path" fill="#e8edfc" height="21" rx="2.07" width="32" y="31"/><path id="Shape" d="m29.93 31h-3c1.1423165.002201 2.067799.9276835 2.07 2.07v16.86c-.002201 1.1423165-.9276835 2.067799-2.07 2.07h3c1.1423165-.002201 2.067799-.9276835 2.07-2.07v-16.86c-.002201-1.1423165-.9276835-2.067799-2.07-2.07z" fill="#cad9fc"/></g><g id="Layer_3" fill="#fff" transform="translate(1 1)"><path id="Shape" d="m2.07 21h.93v5.48c-.00163909.1995199.11146214.3822448.2907699.4697641s.39294268.0642727.5492301-.0597641l2.16-1.654v-4.236h-.93c-1.14231651-.002201-2.067799-.9276835-2.07-2.07v-16.86c.002201-1.1423165.92768349-2.067799 2.07-2.07h-3c-1.1423165.002201-2.067799.9276835-2.07 2.07v16.86c.002201 1.1423165.9276835 2.067799 2.07 2.07z"/><path id="Shape" d="m2.07 52h.93v5.48c-.00163909.1995199.11146214.3822448.2907699.4697641s.39294268.0642727.5492301-.0597641l2.16-1.654v-4.236h-.93c-1.14231651-.002201-2.067799-.9276835-2.07-2.07v-16.86c.002201-1.1423165.92768349-2.067799 2.07-2.07h-3c-1.1423165.002201-2.067799.9276835-2.07 2.07v16.86c.002201 1.1423165.9276835 2.067799 2.07 2.07z"/></g><path id="Rectangle-path" d="m0 42.931h2v8h-2z" fill="#fff"/><g fill="#428dff"><path id="Shape" d="m56.93 14h-22.93v-10.93c-.0016538-1.6948287-1.3751713-3.06834624-3.07-3.07h-27.86c-1.6948287.00165376-3.06834624 1.3751713-3.07 3.07v16.86c.00115761 1.6679008 1.33256947 3.0303789 3 3.07v4.48c.0006853.579017.33048841 1.1072851.85040012 1.3621437.51991172.2548587 1.13949465.191976 1.59759988-.1621437l7.421-5.68h13.131v8h-22.931c-1.69427641.0016538-3.06734624 1.3747236-3.069 3.069v8.862c0 .5522847.44771525 1 1 1s1-.4477153 1-1v-8.862c.00435599-.5885786.48042135-1.064644 1.069-1.069h27.862c.5901639.0005513 1.0684487.4788361 1.069 1.069v16.862c-.0005513.5901639-.4788361 1.0684487-1.069 1.069h-21.931c-.55228475 0-1 .4477153-1 1s.44771525 1 1 1h.578l-4.578 3.5v-3.5c.55228475 0 1-.4477153 1-1s-.44771525-1-1-1h-1.931c-.59016389-.0005513-1.0684487-.4788361-1.069-1.069 0-.5522847-.44771525-1-1-1-1.884 0-1 4 2 4.068v4.483c-.00087265.5797254.32873171 1.1092586.84927978 1.3644292.52054808.2551707 1.14100927.1913559 1.59872022-.1644292l7.42-5.682h18.063c1.6942764-.0016538 3.0673462-1.3747236 3.069-3.069v-10.931h13.131l7.407 5.673c.4567936.3627409 1.0810341.4316574 1.6059559.1772984.5249218-.2543589.8576691-.7869985.8560441-1.3702984v-4.48c1.6670424-.0396114 2.9983-1.4014879 3-3.069v-19.861c-.0016538-1.6948287-1.3751713-3.0683462-3.07-3.07zm-47.93 7c-.55228475 0-1 .4477153-1 1s.44771525 1 1 1h.58l-4.58 3.508v-3.508c.55228475 0 1-.4477153 1-1s-.44771525-1-1-1h-1.93c-.59071618-.0005513-1.0694487-.4792838-1.07-1.07v-16.86c.0005513-.59071618.47928382-1.0694487 1.07-1.07h27.86c.5907162.0005513 1.0694487.47928382 1.07 1.07v10.93h-2.93c-1.6948287.0016538-3.0683462 1.3751713-3.07 3.07v3.93zm49 15.93c-.0005513.5907162-.4792838 1.0694487-1.07 1.07h-1.93c-.5522847 0-1 .4477153-1 1s.4477153 1 1 1v3.508l-4.58-3.508h.58c.5522847 0 1-.4477153 1-1s-.4477153-1-1-1h-17v-3.931c-.0016538-1.6942764-1.3747236-3.0673462-3.069-3.069h-2.931v-13.93c.0005513-.5907162.4792838-1.0694487 1.07-1.07h27.86c.5907162.0005513 1.0694487.4792838 1.07 1.07z"/><circle id="Oval" cx="1" cy="46.931" r="1"/><path id="Shape" d="m16 4c-2.209139 0-4 1.790861-4 4 0 .55228475.4477153 1 1 1s1-.44771525 1-1c0-1.1045695.8954305-2 2-2s2 .8954305 2 2-.8954305 2-2 2c-.5522847 0-1 .4477153-1 1v2c0 .5522847.4477153 1 1 1s1-.4477153 1-1v-1.126c1.9523019-.5019573 3.2260473-2.37821889 2.9720803-4.37795508s-1.9562827-3.49803723-3.9720803-3.49604492z"/><circle id="Oval" cx="16" cy="17" r="1"/><path id="Shape" d="m17 42.874c2.0125541-.5196393 3.2917506-2.4941161 2.9434376-4.5432811-.3483131-2.049165-2.208053-3.4900915-4.2792712-3.3155793-2.0712182.1745123-3.6636381 1.9063035-3.6641664 3.9848604 0 .5522847.4477153 1 1 1s1-.4477153 1-1c0-1.1045695.8954305-2 2-2s2 .8954305 2 2-.8954305 2-2 2c-.5522847 0-1 .4477153-1 1v2c0 .5522847.4477153 1 1 1s1-.4477153 1-1z"/><circle id="Oval" cx="16" cy="48" r="1"/><path id="Shape" d="m43.934 19.641c-.1480681-.3870866-.5195604-.642727-.934-.642727s-.7859319.2556404-.934.642727c-6 15.6-3.289 8.553-5 13-.1282583.3336861-.0687546.7104497.1560969.9883677.2248514.277918.5808902.4147681.934.359.3531098-.055768.6496448-.2956816.7779031-.6293677l1.676-4.359h4.78l1.676 4.359c.1982702.515834.777166.7732702 1.293.575s.7732702-.777166.575-1.293c-14.552-37.832 8.812 22.912-5-13zm-2.555 7.359 1.621-4.214 1.621 4.214z"/></g></g></svg>